<?xml version="1.0" encoding="utf-8"?>
<!-- Generator: Adobe Illustrator 25.0.0, SVG Export Plug-In . SVG Version: 6.00 Build 0)  -->
<svg version="1.1" id="圖層_1" xmlns="http://www.w3.org/2000/svg" xmlns:xlink="http://www.w3.org/1999/xlink" x="0px" y="0px"
	 viewBox="0 0 233.4 146.6" style="enable-background:new 0 0 233.4 146.6;" xml:space="preserve">
<style type="text/css">
	.st0{fill:#FFFFFF;}
	.st1{fill-rule:evenodd;clip-rule:evenodd;fill:#FFFFFF;}
</style>
<g id="圖層_2_1_">
	<circle class="st0" cx="144" cy="18.4" r="14.8"/>
	<path class="st0" d="M145.2,86.9L131,70.8c-1.8-2-2.1-4.9-0.7-7.3l9.7-16.8c1.4-2.4,0.6-5.5-1.7-7l-9.9-6.3
		c-3.6-2.3-8.1-2.2-11.6,0.1L96.7,46.7c0,0,8.3,0.9,16.6,8.4l12.3-5l-8.2,14.4c-1.8,3.1-1.2,7.1,1.5,9.5L140.1,92
		c1.4,1.3,3.6,1.2,4.9-0.1l0,0C146.4,90.6,146.5,88.3,145.2,86.9z"/>
	<path class="st0" d="M112.4,28.2l-4.6,2c-2.2,1-4.7,0.7-6.7-0.8l-8-6c-0.9-0.7-2-0.9-3.1-0.5l-19.3,7.1c-1.4,0.5-2.9,0.1-3.9-1l0,0
		c-1.3-1.5-1.1-3.7,0.4-4.9c0.2-0.2,0.4-0.3,0.6-0.4l18.4-9.8c3.5-1.9,7.7-1.7,11,0.5l15.7,10.2C115.1,25.7,114.1,27.5,112.4,28.2z"
		/>
	<path class="st0" d="M104.1,81.7l-6-17.8c-3.5-0.2-7-0.2-10.5,0.2c-4,0.3-7.9,1-11.8,2.2L41.5,91.5h5v9.1l24.1-13.2H100
		c2.4,0,4.3-1.9,4.3-4.3C104.3,82.6,104.3,82.1,104.1,81.7z M82.1,78l5.5-3.2l3.5,3.2H82.1z"/>
	<path class="st1" d="M121.6,65c-14.2-11.4-43.9-8.4-63.1,3.9c5.3-3.4,25.8-7.7,38.2-7.5C105.1,61.8,113.4,63,121.6,65z"/>
	<path class="st1" d="M113.6,58C77.4,27.9,45.2,83.1,3.3,51.7C37.6,94,68.9,43.1,113.6,58z"/>
	<polygon class="st1" points="138.4,72.7 164.4,47.9 183.4,62.8 195.4,52.6 226.6,83.5 195.4,62.1 183.4,71.8 164.8,58.7 	"/>
	<path class="st0" d="M44.4,93.5v40.4h-9.2v-27.2l-3.7,27.2h-6.5l-3.9-26.6v26.6h-9.2V93.5h13.6c0.4,2.4,0.8,5.3,1.2,8.6l1.5,10.3
		l2.4-18.8H44.4z"/>
	<path class="st0" d="M57.3,113.6h-9.4v-2.2c-0.1-2,0.2-4,0.9-5.9c0.8-1.6,2-2.9,3.5-3.7c2.1-1.1,4.5-1.7,6.9-1.6
		c3.4,0,6,0.6,7.7,1.8c1.6,1,2.7,2.6,3.1,4.4c0.5,3.6,0.6,7.2,0.5,10.8v16.6h-9.8v-2.9c-1,2.2-3.3,3.6-5.8,3.5
		c-1.7,0-3.5-0.5-4.9-1.5c-1.5-1-2.2-3.2-2.2-6.5v-2.7c0-2.5,0.4-4.2,1.2-5.1c0.8-0.9,2.7-1.9,5.8-3.1c3.3-1.3,5.1-2.2,5.3-2.6
		c0.3-0.9,0.4-1.8,0.3-2.7c0.1-1.1-0.1-2.3-0.4-3.4c-0.2-0.5-0.7-0.8-1.3-0.8c-0.7,0-1.1,0.2-1.3,0.7c-0.2,1.1-0.3,2.3-0.2,3.4
		L57.3,113.6z M60.5,118.2c-1.6,1.2-2.5,2.2-2.8,3c-0.3,1.1-0.4,2.3-0.4,3.4c-0.1,1.1,0,2.2,0.3,3.3c0.2,0.5,0.8,0.8,1.3,0.7
		c0.5,0.1,1-0.2,1.2-0.6c0.3-1,0.4-2,0.3-3.1L60.5,118.2z"/>
	<path class="st0" d="M84.2,100.8l-0.4,4.3c1.5-3.1,3.6-4.8,6.4-4.9v11.6c-1.4-0.1-2.8,0.2-4.1,0.7c-0.8,0.4-1.4,1.2-1.6,2.1
		c-0.3,2-0.4,4.1-0.3,6.1v13.1H74.1v-33.1H84.2z"/>
	<path class="st0" d="M114,100.8l-4,13.2l5.3,19.9h-9.7l-3.1-14.4v14.4H92.3V93.5h10.1v16.9l3.1-9.7H114z"/>
	<path class="st0" d="M117.2,106.5l-1.3-6.8v-6.2h7.6v6.2l-1.1,6.8H117.2z"/>
	<path class="st0" d="M146.8,111.4h-8.9v-1.8c0.1-1,0-2-0.3-2.9c-0.2-0.4-0.6-0.6-1.3-0.6c-0.5,0-1,0.2-1.3,0.6
		c-0.3,0.5-0.5,1.1-0.4,1.7c0,0.7,0,1.5,0.2,2.2c0.3,0.6,0.7,1.2,1.3,1.6c1.4,0.9,2.8,1.8,4.4,2.5c2.9,1.4,4.8,2.8,5.8,4
		c1,1.7,1.5,3.6,1.4,5.5c0.1,2.1-0.2,4.2-1,6.1c-0.8,1.4-2,2.5-3.5,3.2c-1.9,0.8-3.9,1.2-5.9,1.1c-2.2,0.1-4.5-0.3-6.6-1.2
		c-1.6-0.6-2.9-1.7-3.8-3.2c-0.8-2-1.1-4.1-1-6.2v-1.6h8.9v2.1c-0.1,1.2,0,2.3,0.3,3.5c0.2,0.5,0.8,0.8,1.3,0.8
		c0.6,0.1,1.1-0.1,1.5-0.5c0.4-0.7,0.5-1.5,0.4-2.3c0-1.6-0.2-2.6-0.6-3c-1.9-1.3-3.8-2.5-5.9-3.5c-3-1.7-4.8-3.2-5.4-4.5
		c-0.7-1.5-1-3.2-1-4.8c-0.1-2,0.2-4,1-5.8c0.8-1.3,2.1-2.4,3.6-2.9c1.9-0.7,3.8-1,5.8-1c1.9,0,3.8,0.2,5.6,0.8
		c1.3,0.4,2.6,1.2,3.5,2.2c0.7,0.7,1.2,1.6,1.5,2.5c0.2,1.2,0.3,2.4,0.3,3.7L146.8,111.4z"/>
	<path class="st0" d="M170,93.5v32.3h6.4v8.1h-16.9V93.5H170z"/>
	<path class="st0" d="M187.6,113.6h-9.4v-2.2c-0.1-2,0.2-4,0.9-5.9c0.8-1.6,2-2.9,3.6-3.7c2.1-1.1,4.5-1.7,6.9-1.6
		c3.4,0,6,0.6,7.7,1.8c1.6,1,2.7,2.6,3.1,4.4c0.5,3.6,0.6,7.2,0.5,10.8v16.6h-9.8v-2.9c-1.1,2.3-3.4,3.7-5.9,3.6
		c-1.7,0-3.4-0.5-4.9-1.5c-1.5-1-2.2-3.2-2.2-6.5v-2.7c0-2.5,0.4-4.2,1.2-5.1c0.8-0.9,2.7-1.9,5.8-3.1c3.3-1.3,5.1-2.2,5.3-2.6
		c0.3-0.9,0.4-1.8,0.4-2.7c0.1-1.1-0.1-2.3-0.4-3.4c-0.2-0.5-0.7-0.8-1.3-0.8c-0.7,0-1.1,0.2-1.3,0.7c-0.2,1.1-0.3,2.3-0.2,3.4
		V113.6z M190.8,118.2c-1.6,1.2-2.6,2.2-2.8,3c-0.3,1.1-0.4,2.3-0.4,3.4c-0.1,1.1,0,2.2,0.3,3.3c0.2,0.5,0.8,0.8,1.3,0.7
		c0.5,0.1,1-0.2,1.2-0.6c0.3-1,0.4-2,0.3-3.1V118.2z"/>
	<path class="st0" d="M214.4,93.5v9.6c0.8-0.9,1.7-1.7,2.8-2.2c1-0.5,2.2-0.7,3.3-0.7c1.2,0,2.4,0.2,3.6,0.6c0.9,0.4,1.7,1,2.3,1.8
		c0.5,0.7,0.8,1.5,1,2.3c0.1,1.6,0.2,3.2,0.2,4.8v14.9c0.1,1.8-0.1,3.6-0.5,5.4c-0.4,1.3-1.2,2.4-2.3,3.1c-1.2,0.9-2.7,1.3-4.3,1.3
		c-1.1,0-2.3-0.3-3.3-0.8c-1.1-0.6-2-1.4-2.8-2.3l-0.6,2.5h-9.4V93.5H214.4z M217.5,110.2c0.1-1.1,0-2.3-0.3-3.3
		c-0.2-0.5-0.7-0.8-1.3-0.8c-0.5-0.1-1,0.2-1.2,0.7c-0.3,1.1-0.4,2.3-0.3,3.4v14.3c-0.1,1.1,0,2.3,0.3,3.4c0.2,0.5,0.7,0.8,1.2,0.7
		c0.5,0.1,1-0.3,1.2-0.8c0.3-1.2,0.4-2.5,0.3-3.7L217.5,110.2z"/>
</g>
</svg>
