<svg xmlns="http://www.w3.org/2000/svg" viewBox="0 0 48 48"><title>40-Learning</title><g id="_40-Learning" data-name="40-Learning"><path d="M22,48H17a1,1,0,0,1-1-1V39c0-1.841-.857-1.989-1.028-2H9a3.888,3.888,0,0,1-4-4V29.749A3.581,3.581,0,0,0,3,29a2.916,2.916,0,0,1-3-3,1.006,1.006,0,0,1,.124-.483L5,16.681V15A15.017,15.017,0,0,1,20,0h2V2H20A13.015,13.015,0,0,0,7,15v1.938a1.013,1.013,0,0,1-.124.484l-4.855,8.8A.878.878,0,0,0,3,27a5.771,5.771,0,0,1,3.663,1.524A1,1,0,0,1,7,29.272V33a1.883,1.883,0,0,0,2,2h6c1.038,0,3,.836,3,4v7h4Z"/><path d="M23,17a3.564,3.564,0,0,1-2.707-1.293C19.8,15.217,19.562,15,19,15V13a3.564,3.564,0,0,1,2.707,1.293c.49.49.73.707,1.293.707s.8-.217,1.293-.707A3.564,3.564,0,0,1,27,13v2c-.563,0-.8.217-1.293.707A3.564,3.564,0,0,1,23,17Z"/><rect x="22" y="16" width="2" height="21"/><path d="M31,31H29a2.916,2.916,0,0,1-3-3V15.236l-3-6-3,6V28a2.916,2.916,0,0,1-3,3H15a2.916,2.916,0,0,1-3-3V21h2v7a.918.918,0,0,0,1.012,1H17a.918.918,0,0,0,1-1.012V15a1,1,0,0,1,.105-.447l4-8a1.042,1.042,0,0,1,1.79,0l4,8A1,1,0,0,1,28,15V28a.915.915,0,0,0,1,1h2a.915.915,0,0,0,1-1V21h2v7A2.916,2.916,0,0,1,31,31Z"/><rect x="21" y="9" width="4" height="2"/><rect x="22" y="39" width="2" height="2"/><rect x="12" y="17" width="2" height="2"/><rect x="32" y="17" width="2" height="2"/><path d="M27,48H25V46h2V41.538a1,1,0,0,1,.778-.976,16.791,16.791,0,0,0,5.258-2.182,1,1,0,0,1,1.24.14l3.159,3.158,4.243-4.242-3.158-3.16a1,1,0,0,1-.14-1.24,16.791,16.791,0,0,0,2.182-5.258A1,1,0,0,1,41.538,27H46V21H41.538a1,1,0,0,1-.976-.778,16.791,16.791,0,0,0-2.182-5.258,1,1,0,0,1,.14-1.24l3.158-3.159L37.436,6.322,34.276,9.48a1,1,0,0,1-1.24.14,16.791,16.791,0,0,0-5.258-2.182A1,1,0,0,1,27,6.462V2H25V0h2a2,2,0,0,1,2,2V5.681a18.866,18.866,0,0,1,4.414,1.833l2.607-2.606a2,2,0,0,1,2.829,0L43.092,9.15a2,2,0,0,1,0,2.829l-2.606,2.607A18.866,18.866,0,0,1,42.319,19H46a2,2,0,0,1,2,2v6a2,2,0,0,1-2,2H42.319a18.866,18.866,0,0,1-1.833,4.414l2.606,2.607a2,2,0,0,1,0,2.829L38.85,43.092a2,2,0,0,1-2.829,0l-2.607-2.606A18.866,18.866,0,0,1,29,42.319V46A2,2,0,0,1,27,48Z"/></g></svg>