<svg xmlns="http://www.w3.org/2000/svg" viewBox="0 0 565.78 135.59"><defs><style>.cls-1{fill:#56a9de;}.cls-1,.cls-4{fill-rule:evenodd;}.cls-2{fill:#ffc200;}.cls-3,.cls-4{fill:#5d4b41;}.cls-4{opacity:0.25;}</style></defs><g id="圖層_2" data-name="圖層 2"><path class="cls-1" d="M118.37,97.74c-1.29,0-2.55,0-3.81,0l-1.22,0-2.51.07c-.47,0-.94,0-1.41.06l-2.24.1-1.4.09c-.73,0-1.47.09-2.19.15l-1.35.11-2.17.19-1.28.13-2.18.23L95.43,99l-2.22.28-1.08.14-2.27.32-.93.14-2.39.36-.74.12-2.54.43-.49.08-2.8.5h-.1c-13,2.37-24.9,5.23-36.78,6.53h0c-.92.1-1.84.19-2.77.27h-.07c-.91.08-1.82.15-2.73.2h-.11c-.9.06-1.81.1-2.71.14h-.14q-1.35,0-2.7.06h-.14c-.9,0-1.8,0-2.71,0h-.13c-.91,0-1.83-.05-2.75-.1H26c-.92-.05-1.85-.11-2.79-.19h-.06l-1.64-.17c1.26,1.21,2.44,2.5,3.69,3.72a3.8,3.8,0,0,1,1.18,2.41,61.83,61.83,0,0,0,7.14,5.53c2.62.23,5.29.39,8,.5h.18l2.51.08h.21c3.54.08,7.17,0,10.94-.11l.48,0,2.36-.12.91,0,2.24-.14,1.09-.08,2.2-.18,1.2-.1q3.53-.33,7.25-.76l1.91-.23,1.76-.23,2.1-.28,1.7-.24,2.31-.34,1.62-.25,2.69-.42,1.36-.23c1.38-.22,2.77-.46,4.18-.71-1.77.66-3.58,1.28-5.41,1.86l-1.8.52c-1.26.38-2.54.75-3.83,1.1l-2.15.52c-1.22.3-2.45.59-3.7.86q-1.14.24-2.28.45c-1.26.25-2.54.48-3.82.69-.76.13-1.51.25-2.28.36-1.36.21-2.74.39-4.14.55-.7.09-1.41.18-2.12.25-1.58.17-3.19.31-4.8.43l-1.64.13q-6.75.45-13.9.38a62.11,62.11,0,0,0,27.09,6.2h0a62.31,62.31,0,0,0,49.17-24l-1.21.07-1,.06-1.66.09h0c-20.09,1.1-29.06,8-64,7.87,24.8-2,41.9-10.14,69-13a4.17,4.17,0,0,1,.66-1,17.28,17.28,0,0,1,2.65-2.43Z"/><path class="cls-2" d="M220.36,35.85V99.74H208.14V51.14l-10.7,48.6H182.16l-10.7-48.6v48.6H159.23V35.85h12.23q8.86.63,11,9.48l7.34,37.9,7.33-37.59c1.63-6.12,5.3-9.37,11-9.79Z"/><path class="cls-2" d="M266.51,62.45V99.74h-7.64L254.29,89V84.45q0-4.28-5.81-4.28h-7.94V89h13.75L250,99.74H238.39q-10.08,0-10.08-9.17v-11Q228,69.48,238.7,69.48h15.59V63.06H228.61v-11h27.21Q266.2,52.36,266.51,62.45Z"/><path class="cls-2" d="M296.16,52.05v11h-4.89q-4.27.3-4.58,4.58v32.1H274.46V63.67q0-11.61,12.54-11.62Z"/><path class="cls-2" d="M314.81,35.85V69.48L327,52.05h14.67L325.51,75l17.42,24.76H328.26l-13.45-19v10.7q-.62,7.33-7,8.26h-5.2V35.85Z"/><path class="cls-2" d="M349.65,35.85h9.17L357.3,56h-9.17Z"/><path class="cls-2" d="M402.84,52.05v11H378.08v7.33h14.37q10.08.31,10.39,9.78v10.4q0,9.17-10.39,9.17h-26.6v-11h24.76V86.29q-.62-4.59-7-4.89h-8.25c-6.11-.2-9.28-3-9.48-8.26V60.92q0-8.87,9.78-8.87Z"/><path class="cls-2" d="M470.08,88.73v11h-26q-13.46,0-13.45-13.15V35.85h12.23v48.6c0,2.86,1.42,4.28,4.28,4.28Z"/><path class="cls-2" d="M513.79,62.45V99.74h-7.64L501.56,89V84.45q0-4.28-5.8-4.28h-7.95V89h13.75l-4.28,10.7H485.67q-10.08,0-10.09-9.17v-11q-.3-10.08,10.39-10.08h15.59V63.06H475.89v-11h27.2Q513.49,52.36,513.79,62.45Z"/><path class="cls-2" d="M560.25,63.36V88.12q-.32,11-11.31,11.62H533.05q-11,0-11.31-11.31V35.85H534v16.2h14.37Q559.94,52.36,560.25,63.36ZM548,88.73v-19q-.91-5.81-7.64-6.72H534V88.73Z"/><path class="cls-3" d="M67.92,10.31A57.49,57.49,0,1,1,10.44,67.8,57.56,57.56,0,0,1,67.92,10.31m0-4.9A62.39,62.39,0,1,0,130.31,67.8,62.46,62.46,0,0,0,67.92,5.41Z"/><path class="cls-4" d="M79.93,28.83c-6.32-4.28-7.38-6.85-11.7-10.52-5.38-4.57-8.15-3.63-11.29-.86-5.18,4.65-35.87,31.48-34.52,32.1,11.21-7.91,24-19.62,33.46-27.37,1.83-1.51,3.87-3.95,6.15-2.73,1.76.9,2.53,2.73.86,5-1.55,2,1.06,4.77,2,7.26,1.1,3-5.26,8.56-14.39,14.06,4.52-.61,9.74-3.46,16.14-7.5,2.2-1.39,3.34-.49,3.59,1.55.32,2.41,1.46,1.67,4-.08,5.5-4,11.33-11.22,12.68-9.75,6.52,5.06-1.43,4.08,4.72,7.75,6.36,3.79,3.51,5-.69,9.34,4-1,5.06-2.12,7.5-3.75A4.38,4.38,0,0,1,103,43.1c2.89,1.51,9.74,5.43,11,5.3C105.85,41.27,97.41,33.72,90.28,27c-4-3.51-5.1-1.06-10.35,1.79Z"/><path class="cls-3" d="M100.93,37.81c-.77-.09-1,.78-1.63.69a3.53,3.53,0,0,1,.93-1.11c.16-.16.4-.34.15-.58s-.36-.05-.52.07l-1.69,1.23a4.2,4.2,0,0,1,.69-1c.17-.22.68-.38.39-.72s-.62,0-.88.25a14.39,14.39,0,0,0-1.09,1c-.61.63-1.19,1.29-1.83,2a1.21,1.21,0,0,1,.22-1.25c.16-.22.36-.5.08-.73s-.39.12-.57.24a2.88,2.88,0,0,0-1.13,2.7c0,.47.22,1.16-.13,1.37-1.16.7-1.37,2.11-2.33,3-1.65,1.48-3.49,2.69-5.22,4a12,12,0,0,1-7.2,2.46c-1.8.05-3.59.43-5.39.6-.57.05-1.42.23-1.62-.47a3.28,3.28,0,0,1-.08-2.21,10.75,10.75,0,0,0,.79-3.75,5.77,5.77,0,0,0-2.13-4.72,4.44,4.44,0,0,0-2.25-.46c-2.1,0-3.13,1-3.76,3a19.16,19.16,0,0,1-.49,2.4,2.83,2.83,0,0,0,.34,3,3.48,3.48,0,0,1,.47,2c-.38-.25-.65-.48-1-.64s-.77-.15-.73.37c.08,1.18.1,2.11-1.51,1.34-.45-.21-.89.49-1.5.46-2.11-.08-4.21.15-6.33-.12A11.9,11.9,0,0,1,48,50c-.64-.5-1.41-1.17-2.11-1.16-2,0-3-1.4-4.33-2.38a3.43,3.43,0,0,1-1.39-2.26,5.32,5.32,0,0,0-2.08-3.29c-.19-.17-.39-.5-.67-.25s-.11.58,0,.86.65.53.68,1c-.45.09-.62-.23-.78-.46a11.86,11.86,0,0,0-2.08-2.22c-.17-.15-.41-.32-.61-.1s0,.42.16.6l1.39,1.79c-1.21-.28-1.82-1.55-3.15-1.66.12.92,1.09,1.12,1.34,1.89-.66.07-1-.77-1.67-.4,0,.6.74.7.77,1.26,0,1,.77,1.54,1.51,2.09,1.64,1.23,3.78,1.6,5.13,3.36a8.82,8.82,0,0,0,.92,1c1.69,1.6,4.05,4.48,6.55,5.48,2.82,1.12,5.52,2.63,8.48,3.37a3,3,0,0,1,2.12,1.68,14.08,14.08,0,0,1,1.65,5.66c.1,3.21.32,6.42.27,9.63,0,1.06-.49,2.18-.29,3.17.38,1.93-.16,3.78-.06,5.67,0,.14-.14.27-.18.43s-.06.63-.11,1a.81.81,0,0,0,0,.31,1.94,1.94,0,0,1-.05,1,13.61,13.61,0,0,0-.41,7.07,14,14,0,0,1,.38,3.67A3.08,3.08,0,0,0,59.57,99a7.52,7.52,0,0,1,.18,1c.2,1.49.17,3,1.1,4.34a1.26,1.26,0,0,1,.13.26c.1.54-.36,1.33.44,1.56a6.5,6.5,0,0,0,1.81,0,19.38,19.38,0,0,0,.12,3s0,1.32,0,1.42c.25,3.43,1.73,15.43,3,19.58.5,0,1,0,1.5,0,1.65,0,3.28-.09,4.9-.22.84-4,2.2-11,2.55-12.43.58-2.37.1-6.15.56-7.7.09-.27.61-2.63.62-2.82,0-1.73,0-3.4,1-5,.68-1.09.34-2.49.28-3.74a1.15,1.15,0,0,1,.13-.73,18.59,18.59,0,0,0,.24-5.28,29.45,29.45,0,0,1-.4-5.39c-.3-1.69-.54-2.84-.53-3A4.27,4.27,0,0,0,77,83a6.58,6.58,0,0,1-.9-3c.37-3.24,0-6.45-.16-9.67s.71-6.21,1.19-9.29c.18-1.17.61-2.54,1.82-3,2.36-1,4.58-2.22,6.85-3.37,1-.5,2.24-.83,2.88-1.79A17.56,17.56,0,0,1,91.24,50c1.34-1.26,1.93-3.18,3.51-4.2.71-.46,1.8-.55,1.26-1.88,0,0,.19-.23.32-.29,1.61-.77,2.51-2.47,4.11-3.25a.44.44,0,0,0,.22-.68c-.68-.08-1.1.7-1.88.61C99.43,39.4,100.52,39,100.93,37.81ZM70.31,122.87a26.17,26.17,0,0,1-.83,4.38c-.55-.87-.51-2.94-.45-3.66.31-3.61,1-12.12,0-15.71a6.36,6.36,0,0,1,.16-2.57c0-.3,0-.75.37-.78s.65.36.84.71a1.14,1.14,0,0,1-.06.92,9.44,9.44,0,0,0-.06,3.27C70.33,114,70.92,119.56,70.31,122.87Z"/></g></svg>