<?xml version="1.0" encoding="utf-8"?>
<!-- Generator: Adobe Illustrator 26.0.1, SVG Export Plug-In . SVG Version: 6.00 Build 0)  -->
<svg version="1.1" id="圖層_1" xmlns="http://www.w3.org/2000/svg" xmlns:xlink="http://www.w3.org/1999/xlink" x="0px" y="0px"
	 viewBox="0 0 565.8 135.6" style="enable-background:new 0 0 565.8 135.6;" xml:space="preserve">
<style type="text/css">
	.st0{fill-rule:evenodd;clip-rule:evenodd;fill:#56A9DE;}
	.st1{fill:#EAB213;}
	.st2{fill:#5D4B41;}
	.st3{opacity:0.25;fill-rule:evenodd;clip-rule:evenodd;fill:#5D4B41;enable-background:new    ;}
</style>
<g id="圖層_2_00000026142339454886827620000011854587748303179136_">
	<path class="st0" d="M118.4,97.7c-1.3,0-2.6,0-3.8,0h-1.2l-2.5,0.1c-0.5,0-0.9,0-1.4,0.1l-2.2,0.1l-1.4,0.1c-0.7,0-1.5,0.1-2.2,0.2
		l-1.3,0.1l-2.2,0.2l-1.3,0.1l-2.2,0.2L95.4,99l-2.2,0.3l-1.1,0.1l-2.3,0.3l-0.9,0.1l-2.4,0.4l-0.7,0.1l-2.5,0.4l-0.5,0.1l-2.8,0.5
		h-0.1c-13,2.4-24.9,5.2-36.8,6.5l0,0c-0.9,0.1-1.8,0.2-2.8,0.3h-0.1c-0.9,0.1-1.8,0.2-2.7,0.2h-0.1c-0.9,0.1-1.8,0.1-2.7,0.1h-0.1
		c-0.9,0-1.8,0-2.7,0.1h-0.1c-0.9,0-1.8,0-2.7,0h-0.1c-0.9,0-1.8-0.1-2.8-0.1H26c-0.9-0.1-1.9-0.1-2.8-0.2h-0.1l-1.6-0.2
		c1.3,1.2,2.4,2.5,3.7,3.7c0.7,0.6,1.1,1.5,1.2,2.4c2.2,2,4.6,3.9,7.1,5.5c2.6,0.2,5.3,0.4,8,0.5h0.2l2.5,0.1h0.2
		c3.5,0.1,7.2,0,10.9-0.1h0.5l2.4-0.1h0.9l2.2-0.1l1.1-0.1l2.2-0.2l1.2-0.1c2.4-0.2,4.8-0.5,7.2-0.8l1.9-0.2l1.8-0.2l2.1-0.3
		l1.7-0.2l2.3-0.3l1.6-0.2l2.7-0.4l1.4-0.2c1.4-0.2,2.8-0.5,4.2-0.7c-1.8,0.7-3.6,1.3-5.4,1.9l-1.8,0.5c-1.3,0.4-2.5,0.8-3.8,1.1
		l-2.2,0.5c-1.2,0.3-2.4,0.6-3.7,0.9c-0.8,0.2-1.5,0.3-2.3,0.4c-1.3,0.2-2.5,0.5-3.8,0.7c-0.8,0.1-1.5,0.2-2.3,0.4
		c-1.4,0.2-2.7,0.4-4.1,0.6c-0.7,0.1-1.4,0.2-2.1,0.2c-1.6,0.2-3.2,0.3-4.8,0.4l-1.6,0.1c-4.5,0.3-9.1,0.4-13.9,0.4
		c8.4,4.1,17.7,6.2,27.1,6.2l0,0c19.2,0,37.4-8.8,49.2-24l-1.2,0.1l-1,0.1l-1.7,0.1l0,0c-20.1,1.1-29.1,8-64,7.9
		c24.8-2,41.9-10.1,69-13c0.2-0.4,0.4-0.7,0.7-1c0.8-0.9,1.7-1.7,2.7-2.4L118.4,97.7z"/>
	<path class="st1" d="M220.4,35.8v63.9h-12.2V51.1l-10.7,48.6h-15.3l-10.7-48.6v48.6h-12.2V35.8h12.2c5.9,0.4,9.6,3.6,11,9.5
		l7.3,37.9l7.3-37.6c1.6-6.1,5.3-9.4,11-9.8L220.4,35.8z"/>
	<path class="st1" d="M266.5,62.5v37.3h-7.6L254.3,89v-4.6c0-2.9-1.9-4.3-5.8-4.3h-7.9V89h13.8L250,99.7h-11.6
		c-6.7,0-10.1-3.1-10.1-9.2v-11c-0.2-6.7,3.3-10.1,10.4-10.1h15.6v-6.4h-25.7v-11h27.2C262.7,52.3,266.3,55.7,266.5,62.5z"/>
	<path class="st1" d="M296.2,52v11h-4.9c-2.8,0.2-4.4,1.7-4.6,4.6v32.1h-12.2V63.7c0-7.7,4.2-11.6,12.5-11.6H296.2z"/>
	<path class="st1" d="M314.8,35.8v33.6L327,52h14.7l-16.2,23l17.4,24.8h-14.7l-13.5-19v10.7c-0.4,4.9-2.7,7.6-7,8.3h-5.2V35.8H314.8
		z"/>
	<path class="st1" d="M349.6,35.8h9.2L357.3,56h-9.2L349.6,35.8z"/>
	<path class="st1" d="M402.8,52v11h-24.8v7.3h14.4c6.7,0.2,10.2,3.5,10.4,9.8v10.4c0,6.1-3.5,9.2-10.4,9.2h-26.6v-11h24.8v-2.4
		c-0.4-3.1-2.7-4.7-7-4.9h-8.2c-6.1-0.2-9.3-3-9.5-8.3V60.9c0-5.9,3.3-8.9,9.8-8.9H402.8z"/>
	<path class="st1" d="M470.1,88.7v11h-26c-9,0-13.5-4.4-13.5-13.2V35.8h12.2v48.6c0,2.9,1.4,4.3,4.3,4.3L470.1,88.7z"/>
	<path class="st1" d="M513.8,62.5v37.3h-7.6L501.6,89v-4.6c0-2.9-1.9-4.3-5.8-4.3h-8V89h13.8l-4.3,10.7h-11.6
		c-6.7,0-10.1-3.1-10.1-9.2v-11c-0.2-6.7,3.3-10.1,10.4-10.1h15.6v-6.4h-25.7v-11h27.2C510,52.3,513.6,55.7,513.8,62.5z"/>
	<path class="st1" d="M560.2,63.4v24.8c-0.2,7.3-4,11.2-11.3,11.6H533c-7.3,0-11.1-3.8-11.3-11.3V35.8H534V52h14.4
		C556.1,52.3,560,56,560.2,63.4z M548,88.7v-19c-0.6-3.9-3.2-6.1-7.6-6.7H534v25.7H548z"/>
	<path class="st2" d="M67.9,10.3c31.8,0,57.5,25.7,57.5,57.5c0,31.8-25.7,57.5-57.5,57.5S10.4,99.6,10.4,67.8c0,0,0,0,0,0
		C10.5,36.1,36.2,10.4,67.9,10.3 M67.9,5.4C33.5,5.4,5.5,33.3,5.5,67.8s27.9,62.4,62.4,62.4s62.4-27.9,62.4-62.4
		C130.3,33.4,102.4,5.4,67.9,5.4z"/>
	<path class="st3" d="M79.9,28.8c-6.3-4.3-7.4-6.9-11.7-10.5c-5.4-4.6-8.2-3.6-11.3-0.9c-5.2,4.6-35.9,31.5-34.5,32.1
		c11.2-7.9,24-19.6,33.5-27.4c1.8-1.5,3.9-4,6.2-2.7c1.8,0.9,2.5,2.7,0.9,5c-1.5,2,1.1,4.8,2,7.3c1.1,3-5.3,8.6-14.4,14.1
		c4.5-0.6,9.7-3.5,16.1-7.5c2.2-1.4,3.3-0.5,3.6,1.5c0.3,2.4,1.5,1.7,4-0.1c5.5-4,11.3-11.2,12.7-9.8c6.5,5.1-1.4,4.1,4.7,7.8
		c6.4,3.8,3.5,5-0.7,9.3c4-1,5.1-2.1,7.5-3.8c1.4-0.9,3.1-1,4.6-0.2c2.9,1.5,9.7,5.4,11,5.3c-8.2-7.1-16.6-14.7-23.7-21.4
		C86.3,23.5,85.2,25.9,79.9,28.8L79.9,28.8z"/>
	<path class="st2" d="M100.9,37.8c-0.8-0.1-1,0.8-1.6,0.7c0.2-0.4,0.5-0.8,0.9-1.1c0.2-0.2,0.4-0.3,0.2-0.6s-0.4,0-0.5,0.1l-1.7,1.2
		c0.2-0.4,0.4-0.7,0.7-1c0.2-0.2,0.7-0.4,0.4-0.7s-0.6,0-0.9,0.2c-0.4,0.3-0.7,0.6-1.1,1c-0.6,0.6-1.2,1.3-1.8,2
		c-0.2-0.4-0.1-0.9,0.2-1.2c0.2-0.2,0.4-0.5,0.1-0.7s-0.4,0.1-0.6,0.2c-0.8,0.6-1.3,1.7-1.1,2.7c0,0.5,0.2,1.2-0.1,1.4
		c-1.2,0.7-1.4,2.1-2.3,3c-1.7,1.5-3.5,2.7-5.2,4c-2.1,1.6-4.6,2.4-7.2,2.5c-1.8,0-3.6,0.4-5.4,0.6c-0.6,0-1.4,0.2-1.6-0.5
		c-0.3-0.7-0.3-1.5-0.1-2.2c0.5-1.2,0.8-2.5,0.8-3.8c0.1-1.8-0.7-3.6-2.1-4.7c-0.7-0.3-1.5-0.5-2.2-0.5c-2.1,0-3.1,1-3.8,3
		c-0.1,0.8-0.3,1.6-0.5,2.4c-0.5,1-0.3,2.1,0.3,3c0.4,0.6,0.5,1.3,0.5,2c-0.4-0.2-0.7-0.5-1-0.6s-0.8-0.2-0.7,0.4
		c0.1,1.2,0.1,2.1-1.5,1.3c-0.5-0.2-0.9,0.5-1.5,0.5c-2.1-0.1-4.2,0.2-6.3-0.1c-2.2-0.2-4.2-1-6-2.2c-0.6-0.5-1.4-1.2-2.1-1.2
		c-2,0-3-1.4-4.3-2.4c-0.7-0.5-1.2-1.4-1.4-2.3c-0.3-1.3-1-2.5-2.1-3.3c-0.2-0.2-0.4-0.5-0.7-0.2s-0.1,0.6,0,0.9s0.7,0.5,0.7,1
		c-0.5,0.1-0.6-0.2-0.8-0.5c-0.6-0.8-1.3-1.6-2.1-2.2c-0.2-0.2-0.4-0.3-0.6-0.1s0,0.4,0.2,0.6l1.4,1.8c-1.2-0.3-1.8-1.5-3.2-1.7
		c0.1,0.9,1.1,1.1,1.3,1.9c-0.7,0.1-1-0.8-1.7-0.4c0,0.6,0.7,0.7,0.8,1.3c0,1,0.8,1.5,1.5,2.1c1.6,1.2,3.8,1.6,5.1,3.4
		c0.3,0.4,0.6,0.7,0.9,1c1.7,1.6,4,4.5,6.5,5.5c2.8,1.1,5.5,2.6,8.5,3.4c0.9,0.2,1.7,0.8,2.1,1.7c0.9,1.7,1.5,3.7,1.7,5.7
		c0.1,3.2,0.3,6.4,0.3,9.6c0,1.1-0.5,2.2-0.3,3.2c0.4,1.9-0.2,3.8-0.1,5.7c0,0.1-0.1,0.3-0.2,0.4s-0.1,0.6-0.1,1c0,0.1,0,0.2,0,0.3
		c0.1,0.3,0.1,0.7,0,1c-0.8,2.3-0.9,4.7-0.4,7.1c0.3,1.2,0.4,2.4,0.4,3.7c0,0.4,0,0.8,0.2,1.2c0.1,0.3,0.1,0.7,0.2,1
		c0.2,1.5,0.2,3,1.1,4.3c0.1,0.1,0.1,0.2,0.1,0.3c0.1,0.5-0.4,1.3,0.4,1.6c0.6,0.1,1.2,0.1,1.8,0c0,1,0,2,0.1,3c0,0,0,1.3,0,1.4
		c0.2,3.4,1.7,15.4,3,19.6c0.5,0,1,0,1.5,0c1.7,0,3.3-0.1,4.9-0.2c0.8-4,2.2-11,2.6-12.4c0.6-2.4,0.1-6.2,0.6-7.7
		c0.1-0.3,0.6-2.6,0.6-2.8c0-1.7,0-3.4,1-5c0.7-1.1,0.3-2.5,0.3-3.7c0-0.3,0-0.5,0.1-0.7c0.3-1.7,0.4-3.5,0.2-5.3
		c-0.3-1.8-0.4-3.6-0.4-5.4c-0.3-1.7-0.5-2.8-0.5-3c0-0.3-0.1-0.6-0.2-0.8c-0.5-0.9-0.8-1.9-0.9-3c0.4-3.2,0-6.4-0.2-9.7
		s0.7-6.2,1.2-9.3c0.2-1.2,0.6-2.5,1.8-3c2.4-1,4.6-2.2,6.8-3.4c1-0.5,2.2-0.8,2.9-1.8c0.7-1.1,1.6-2,2.6-2.9
		c1.3-1.3,1.9-3.2,3.5-4.2c0.7-0.5,1.8-0.5,1.3-1.9c0,0,0.2-0.2,0.3-0.3c1.6-0.8,2.5-2.5,4.1-3.2c0.2-0.1,0.4-0.3,0.3-0.6
		c0,0,0-0.1-0.1-0.1c-0.7-0.1-1.1,0.7-1.9,0.6C99.4,39.4,100.5,39,100.9,37.8z M70.3,122.9c-0.2,1.5-0.4,2.9-0.8,4.4
		c-0.6-0.9-0.5-2.9-0.4-3.7c0.3-3.6,1-12.1,0-15.7c-0.1-0.9-0.1-1.7,0.2-2.6c0-0.3,0-0.8,0.4-0.8s0.7,0.4,0.8,0.7
		c0.1,0.3,0.1,0.6-0.1,0.9c-0.2,1.1-0.2,2.2-0.1,3.3C70.3,114,70.9,119.6,70.3,122.9z"/>
</g>
</svg>
