<svg xmlns="http://www.w3.org/2000/svg" xmlns:xlink="http://www.w3.org/1999/xlink" viewBox="0 0 233.44 146.65"><defs><style>.cls-1{fill:url(#未命名漸層_585);}.cls-2{fill:url(#未命名漸層_585-2);}.cls-3{fill:url(#未命名漸層_585-3);}.cls-4{fill:url(#未命名漸層_585-4);}.cls-5,.cls-6{fill:#231815;}.cls-5{fill-rule:evenodd;}</style><linearGradient id="未命名漸層_585" x1="153.69" y1="9.77" x2="53.93" y2="98.89" gradientUnits="userSpaceOnUse"><stop offset="0" stop-color="#f7bf00"/><stop offset="0.32" stop-color="#fb8b1d"/><stop offset="0.54" stop-color="#fe6632"/><stop offset="0.61" stop-color="#fb5e33"/><stop offset="0.73" stop-color="#f14834"/><stop offset="0.87" stop-color="#e22537"/><stop offset="1" stop-color="#d2003a"/></linearGradient><linearGradient id="未命名漸層_585-2" x1="168.68" y1="26.55" x2="68.91" y2="115.67" xlink:href="#未命名漸層_585"/><linearGradient id="未命名漸層_585-3" x1="133.59" y1="-12.73" x2="33.83" y2="76.39" xlink:href="#未命名漸層_585"/><linearGradient id="未命名漸層_585-4" x1="156.81" y1="13.26" x2="57.05" y2="102.38" xlink:href="#未命名漸層_585"/></defs><g id="圖層_2" data-name="圖層 2"><circle class="cls-1" cx="144.02" cy="18.4" r="14.82"/><path class="cls-2" d="M145.21,86.88,131,70.77a6.26,6.26,0,0,1-.72-7.26L140,46.7a5.21,5.21,0,0,0-1.71-7l-9.87-6.3a10.68,10.68,0,0,0-11.64.08L96.66,46.69s8.27.86,16.61,8.36l12.29-5-8.22,14.35a7.63,7.63,0,0,0,1.51,9.47L140.07,92a3.61,3.61,0,0,0,4.92-.07h0A3.63,3.63,0,0,0,145.21,86.88Z"/><path class="cls-3" d="M112.45,28.19l-4.56,2a6.74,6.74,0,0,1-6.68-.76l-8-5.95A3.18,3.18,0,0,0,90.12,23L70.86,30.08a3.49,3.49,0,0,1-3.87-1h0a3.5,3.5,0,0,1,1-5.37l18.44-9.8a10.85,10.85,0,0,1,11,.46l15.73,10.17C115.11,25.72,114.07,27.49,112.45,28.19Z"/><path class="cls-4" d="M104.1,81.65l-6-17.81A63.34,63.34,0,0,0,87.59,64a60,60,0,0,0-11.78,2.16L41.52,91.46h5v9.05L70.59,87.33l29.46,0A4.29,4.29,0,0,0,104.1,81.65ZM82.08,78l5.54-3.16L91.12,78Z"/><path class="cls-5" d="M121.58,65c-14.15-11.41-43.86-8.38-63.1,3.91,5.3-3.39,25.85-7.72,38.18-7.46A121.47,121.47,0,0,1,121.58,65Z"/><path class="cls-5" d="M113.63,58C77.44,27.89,45.18,83.14,3.34,51.74,37.58,94,68.89,43.1,113.63,58Z"/><polygon class="cls-5" points="138.39 72.72 164.38 47.89 183.35 62.84 195.44 52.64 226.58 83.46 195.38 62.14 183.35 71.8 164.77 58.69 138.39 72.72"/><path class="cls-6" d="M44.44,93.53v40.35H35.27V106.64L31.6,133.88H25.1l-3.85-26.62,0,26.62H12.06V93.53H25.64q.6,3.63,1.25,8.58l1.49,10.26,2.41-18.84Z"/><path class="cls-6" d="M57.35,113.62H47.91V111.4a15.66,15.66,0,0,1,.88-5.92,8.22,8.22,0,0,1,3.55-3.68,13.41,13.41,0,0,1,6.93-1.59q5.11,0,7.7,1.8a7.07,7.07,0,0,1,3.12,4.44,69.47,69.47,0,0,1,.52,10.83v16.6H60.82v-2.95A6.15,6.15,0,0,1,55,134.48,8.5,8.5,0,0,1,50.11,133q-2.2-1.49-2.2-6.5v-2.71q0-3.72,1.17-5.06t5.8-3.14q5-1.95,5.31-2.62a6.8,6.8,0,0,0,.35-2.74,9.46,9.46,0,0,0-.38-3.38,1.34,1.34,0,0,0-1.29-.79c-.68,0-1.1.22-1.27.66a13.83,13.83,0,0,0-.25,3.43Zm3.19,4.53c-1.61,1.18-2.54,2.17-2.8,3a11.67,11.67,0,0,0-.39,3.44,9.88,9.88,0,0,0,.34,3.32,1.32,1.32,0,0,0,1.33.74,1.24,1.24,0,0,0,1.24-.58,9.59,9.59,0,0,0,.28-3.08Z"/><path class="cls-6" d="M84.15,100.8l-.4,4.35q2.19-4.66,6.36-4.94v11.64a8.59,8.59,0,0,0-4.07.74,3.16,3.16,0,0,0-1.59,2.09,37.13,37.13,0,0,0-.3,6.14v13.06H74.08V100.8Z"/><path class="cls-6" d="M114,100.8,110,114l5.31,19.9h-9.69l-3.14-14.41v14.41H92.35V93.53h10.07v16.94l3.14-9.67Z"/><path class="cls-6" d="M117.18,106.51l-1.32-6.8V93.53h7.62v6.18l-1.14,6.8Z"/><path class="cls-6" d="M146.77,111.37h-8.93v-1.79a9.66,9.66,0,0,0-.26-2.9c-.17-.41-.61-.62-1.31-.62a1.5,1.5,0,0,0-1.27.56,2.83,2.83,0,0,0-.42,1.69,8.62,8.62,0,0,0,.21,2.23,3.54,3.54,0,0,0,1.27,1.56,28.09,28.09,0,0,0,4.35,2.46q4.38,2.14,5.76,4a9.37,9.37,0,0,1,1.37,5.51,13.9,13.9,0,0,1-1,6.1,7,7,0,0,1-3.5,3.16,14.31,14.31,0,0,1-5.92,1.11,16.27,16.27,0,0,1-6.57-1.2,7.1,7.1,0,0,1-3.75-3.24,14.39,14.39,0,0,1-1-6.18v-1.59h8.92v2.09a10.87,10.87,0,0,0,.34,3.47,1.3,1.3,0,0,0,1.33.79,1.84,1.84,0,0,0,1.5-.53,4,4,0,0,0,.42-2.26c0-1.58-.18-2.57-.55-3a47.45,47.45,0,0,0-5.86-3.53c-3-1.67-4.76-3.17-5.41-4.53a11.17,11.17,0,0,1-1-4.82,12.5,12.5,0,0,1,1-5.85,6.81,6.81,0,0,1,3.55-2.9,15.35,15.35,0,0,1,5.82-1,16.45,16.45,0,0,1,5.6.83,8.6,8.6,0,0,1,3.54,2.21,5.86,5.86,0,0,1,1.49,2.54,17.86,17.86,0,0,1,.27,3.66Z"/><path class="cls-6" d="M170,93.53v32.28h6.38v8.07H159.53V93.53Z"/><path class="cls-6" d="M187.64,113.62H178.2V111.4a15.66,15.66,0,0,1,.88-5.92,8.28,8.28,0,0,1,3.55-3.68,13.41,13.41,0,0,1,6.93-1.59q5.12,0,7.71,1.8a7.06,7.06,0,0,1,3.11,4.44,69,69,0,0,1,.53,10.83v16.6h-9.8v-2.95a6.15,6.15,0,0,1-5.86,3.55A8.5,8.5,0,0,1,180.4,133q-2.21-1.49-2.2-6.5v-2.71q0-3.72,1.17-5.06t5.81-3.14q4.95-1.95,5.31-2.62a7,7,0,0,0,.35-2.74,9.16,9.16,0,0,0-.39-3.38,1.34,1.34,0,0,0-1.29-.79c-.68,0-1.1.22-1.27.66a13.83,13.83,0,0,0-.25,3.43Zm3.2,4.53c-1.62,1.18-2.55,2.17-2.81,3a11.67,11.67,0,0,0-.39,3.44,10.16,10.16,0,0,0,.34,3.32,1.33,1.33,0,0,0,1.33.74,1.23,1.23,0,0,0,1.24-.58,9.47,9.47,0,0,0,.29-3.08Z"/><path class="cls-6" d="M214.44,93.53v9.55a8.17,8.17,0,0,1,2.78-2.16,7.72,7.72,0,0,1,3.33-.71,9.14,9.14,0,0,1,3.59.64,5.29,5.29,0,0,1,2.32,1.82,5.61,5.61,0,0,1,1,2.3,45.35,45.35,0,0,1,.16,4.78v14.91a21.89,21.89,0,0,1-.49,5.42,5.63,5.63,0,0,1-2.28,3.09,7,7,0,0,1-4.26,1.31,7.28,7.28,0,0,1-3.3-.77,8.7,8.7,0,0,1-2.81-2.33l-.65,2.5h-9.42V93.53Zm3.07,16.67a10.57,10.57,0,0,0-.33-3.35,1.25,1.25,0,0,0-1.27-.79,1.14,1.14,0,0,0-1.19.69,12.18,12.18,0,0,0-.28,3.45v14.26a11.62,11.62,0,0,0,.31,3.42,1.22,1.22,0,0,0,1.24.74,1.17,1.17,0,0,0,1.23-.77,14.06,14.06,0,0,0,.29-3.71Z"/></g></svg>