<svg xmlns="http://www.w3.org/2000/svg" viewBox="0 0 233.44 146.65"><defs><style>.cls-1{fill:#c30d23;}.cls-2,.cls-3{fill:#231815;}.cls-2{fill-rule:evenodd;}</style></defs><g id="圖層_2" data-name="圖層 2"><path class="cls-1" d="M139.42,137.13c-8.82-.11-16.46-3.67-21.51-10s-6.9-14.71-5.2-23.55c3.46-18,21-32.72,39-32.72h.43c18.23.24,30.22,15.3,26.71,33.58-3.46,18-21,32.72-39,32.72Zm11.26-60.57c-14.92,0-29.4,12.15-32.26,27.07-1.4,7.32.13,14.24,4.31,19.49s10.49,8.19,17.79,8.29h.36c14.92,0,29.39-12.14,32.26-27.07,2.9-15.12-7-27.58-22.1-27.77Z"/><path class="cls-1" d="M164.46,84.68c7,6.45,8,21.62-5.12,33.72-9.76,9-21.33,10.34-28.86,4.71,7.59,7.3,20.34,6.52,30.87-3.61,13-12.5,11.38-28,4.08-34.62a16.58,16.58,0,0,0-8.58-4A15.66,15.66,0,0,1,164.46,84.68Z"/><path class="cls-1" d="M162.21,85.67c5.66,5.86,5.29,18.67-6.19,28.1-8,6.59-17.11,7.61-23.2,3.63,6.15,5.16,16.11,4.53,24.76-2.82C169,104.9,169,91.82,163.07,85.85a13.66,13.66,0,0,0-7.5-3.77A12.86,12.86,0,0,1,162.21,85.67Z"/><path class="cls-1" d="M160,86.62c4.53,5.29,3.24,16.07-6.64,23.47-6.59,4.94-13.81,5.73-18.75,2.83,5,3.74,12.87,3.24,20-2.22,9.85-7.56,10.87-18.54,6.17-23.91a11.19,11.19,0,0,0-6.49-3.53A10.6,10.6,0,0,1,160,86.62Z"/><circle class="cls-1" cx="145.29" cy="23.65" r="14.82"/><path class="cls-1" d="M150.47,96.76,132.25,76a6.25,6.25,0,0,1-.71-7.26l9.7-16.81a5.21,5.21,0,0,0-1.71-7l-9.87-6.3a10.7,10.7,0,0,0-11.64.08L97.93,51.93s8.27.86,16.6,8.36l12.29-5L118.6,69.63a7.63,7.63,0,0,0,1.51,9.47l25.22,22.73a3.62,3.62,0,0,0,4.92-.06h0A3.63,3.63,0,0,0,150.47,96.76Z"/><path class="cls-1" d="M113.71,33.43l-4.56,2a6.74,6.74,0,0,1-6.68-.77l-8-5.94a3.17,3.17,0,0,0-3.06-.5L72.12,35.32a3.5,3.5,0,0,1-3.87-1h0a3.51,3.51,0,0,1,1-5.37l18.44-9.8a10.85,10.85,0,0,1,11,.47l15.72,10.16C116.38,31,115.33,32.73,113.71,33.43Z"/><path class="cls-1" d="M99.39,69.08a64.61,64.61,0,0,0-10.54.11,59.85,59.85,0,0,0-11.77,2.16L42.79,96.7h5v9L71.86,92.58l29.45,0a4.29,4.29,0,0,0,4.06-5.65Z"/><path class="cls-2" d="M122.84,70.24C108.69,58.83,79,61.86,59.74,74.15c5.3-3.38,25.85-7.72,38.19-7.46A121.45,121.45,0,0,1,122.84,70.24Z"/><path class="cls-2" d="M114.89,63.24C78.7,33.13,46.45,88.38,4.6,57,38.84,99.21,70.15,48.35,114.89,63.24Z"/><polygon class="cls-2" points="137.35 68.45 165.34 44.83 185.61 60.8 197.7 50.6 228.84 81.41 197.64 60.1 185.61 69.76 165.34 56.68 137.35 68.45"/><path class="cls-3" d="M45.7,98.77v40.35H36.53V111.88l-3.65,27.24H26.36L22.51,112.5v26.62H13.32V98.77H26.9c.41,2.42.82,5.28,1.25,8.58l1.49,10.26,2.41-18.84Z"/><path class="cls-3" d="M58.61,118.86H49.17v-2.22a15.66,15.66,0,0,1,.88-5.92A8.28,8.28,0,0,1,53.6,107a13.41,13.41,0,0,1,6.93-1.59q5.11,0,7.71,1.81a7.05,7.05,0,0,1,3.11,4.43,69.21,69.21,0,0,1,.53,10.83v16.6h-9.8v-2.94a6.67,6.67,0,0,1-2.38,2.66,6.57,6.57,0,0,1-3.48.88,8.5,8.5,0,0,1-4.85-1.48q-2.2-1.49-2.2-6.49V129c0-2.48.39-4.16,1.17-5.06s2.72-2,5.81-3.14q5-2,5.31-2.62a7,7,0,0,0,.34-2.74,9.23,9.23,0,0,0-.38-3.38,1.34,1.34,0,0,0-1.29-.78c-.68,0-1.1.22-1.27.66a13.67,13.67,0,0,0-.25,3.42Zm3.19,4.54c-1.61,1.18-2.54,2.16-2.8,3a11.71,11.71,0,0,0-.39,3.44,10.16,10.16,0,0,0,.34,3.32,1.31,1.31,0,0,0,1.33.74,1.23,1.23,0,0,0,1.24-.58,9.59,9.59,0,0,0,.28-3.08Z"/><path class="cls-3" d="M85.41,106.05,85,110.4q2.19-4.68,6.36-5v11.64a8.38,8.38,0,0,0-4.06.75,3.11,3.11,0,0,0-1.6,2.08,37.21,37.21,0,0,0-.3,6.14v13.06H75.34V106.05Z"/><path class="cls-3" d="M115.3,106.05l-4.09,13.17,5.31,19.9h-9.68l-3.15-14.41v14.41H93.61V98.77h10.07v16.94l3.15-9.66Z"/><path class="cls-3" d="M118.44,111.75l-1.32-6.8V98.77h7.63V105l-1.15,6.8Z"/><path class="cls-3" d="M148,116.62H139.1v-1.8a9.32,9.32,0,0,0-.26-2.9c-.17-.41-.61-.61-1.31-.61a1.48,1.48,0,0,0-1.27.56,2.77,2.77,0,0,0-.42,1.68,8.57,8.57,0,0,0,.21,2.23,3.54,3.54,0,0,0,1.27,1.56,28.39,28.39,0,0,0,4.35,2.47c2.93,1.43,4.84,2.77,5.76,4a9.37,9.37,0,0,1,1.37,5.51,13.87,13.87,0,0,1-1.05,6.1,7,7,0,0,1-3.5,3.16,14.31,14.31,0,0,1-5.92,1.11,16.44,16.44,0,0,1-6.57-1.19,7.18,7.18,0,0,1-3.75-3.24,14.47,14.47,0,0,1-1-6.19v-1.59h8.92v2.09a10.87,10.87,0,0,0,.34,3.47,1.3,1.3,0,0,0,1.33.79,1.8,1.8,0,0,0,1.5-.53,4,4,0,0,0,.42-2.26c0-1.58-.18-2.57-.55-3a45.77,45.77,0,0,0-5.85-3.54c-3-1.66-4.77-3.17-5.41-4.53a11,11,0,0,1-1-4.82,12.5,12.5,0,0,1,1.05-5.85,6.81,6.81,0,0,1,3.55-2.9,15.35,15.35,0,0,1,5.82-1,16.7,16.7,0,0,1,5.6.83,8.64,8.64,0,0,1,3.54,2.21,5.86,5.86,0,0,1,1.49,2.54,17.9,17.9,0,0,1,.27,3.67Z"/><path class="cls-3" d="M171.28,98.77v32.28h6.39v8.07H160.79V98.77Z"/><path class="cls-3" d="M188.91,118.86h-9.45v-2.22a15.66,15.66,0,0,1,.88-5.92A8.25,8.25,0,0,1,183.9,107a13.36,13.36,0,0,1,6.93-1.59q5.1,0,7.7,1.81a7,7,0,0,1,3.11,4.43,69.21,69.21,0,0,1,.53,10.83v16.6h-9.8v-2.94a6.12,6.12,0,0,1-5.86,3.54,8.47,8.47,0,0,1-4.84-1.48c-1.48-1-2.21-3.15-2.21-6.49V129c0-2.48.39-4.16,1.17-5.06s2.72-2,5.81-3.14q5-2,5.31-2.62a7,7,0,0,0,.35-2.74,9.16,9.16,0,0,0-.39-3.38,1.32,1.32,0,0,0-1.28-.78c-.68,0-1.11.22-1.27.66a13.17,13.17,0,0,0-.25,3.42Zm3.19,4.54c-1.61,1.18-2.55,2.16-2.81,3a12.13,12.13,0,0,0-.38,3.44,10.26,10.26,0,0,0,.33,3.32,1.32,1.32,0,0,0,1.34.74,1.23,1.23,0,0,0,1.23-.58,9.47,9.47,0,0,0,.29-3.08Z"/><path class="cls-3" d="M215.7,98.77v9.55a8.29,8.29,0,0,1,2.78-2.16,7.9,7.9,0,0,1,3.33-.71,9,9,0,0,1,3.59.65,5.1,5.1,0,0,1,2.32,1.82,5.52,5.52,0,0,1,1,2.29,42.64,42.64,0,0,1,.16,4.78V129.9a21.89,21.89,0,0,1-.49,5.42,5.63,5.63,0,0,1-2.28,3.09,7,7,0,0,1-4.26,1.31,7.28,7.28,0,0,1-3.3-.77,8.81,8.81,0,0,1-2.81-2.33l-.64,2.5h-9.43V98.77Zm3.07,16.67a11,11,0,0,0-.32-3.35,1.25,1.25,0,0,0-1.28-.78A1.13,1.13,0,0,0,216,112a12.59,12.59,0,0,0-.28,3.45V129.7a11.15,11.15,0,0,0,.32,3.42,1.18,1.18,0,0,0,1.23.74,1.17,1.17,0,0,0,1.23-.77,14.06,14.06,0,0,0,.29-3.71Z"/></g></svg>