<svg xmlns="http://www.w3.org/2000/svg" viewBox="0 0 272.13 272.13"><defs><style>.cls-1{fill:#56a9de;}.cls-1,.cls-3{fill-rule:evenodd;}.cls-2,.cls-3{fill:#5d4b41;}.cls-3{opacity:0.7;}.cls-4{fill:#ffc200;}.cls-5{fill:#fff;}</style></defs><g id="圖層_2" data-name="圖層 2"><path class="cls-1" d="M178.9,218.48q-42.37,15.81-98.73,13.8a120.28,120.28,0,0,0,25,7.86,158.25,158.25,0,0,0,61.84,0c21.15-4.32,33.43-13.3,43.32-24.29l2.2-2c1-1.16,2.72-1.86,3.58-3.05l1.67-2.35,1.77-2,.66,2.12c2.59-3.59,2.42-3.22,3.38-7.05l-9.29.53h0c-34.73,1.9-50.24,13.77-110.54,13.59C147,212.12,176.67,197.81,224.32,193a331.47,331.47,0,0,1,47.81-1.27,298.07,298.07,0,0,0-48.88-4.59c-71.86-.72-118,25.65-173.82,17.18C34,202,17.73,196.92,0,187.91c17,13,36.6,20.08,55,23.58l1.6-.11,2-.2A52.65,52.65,0,0,0,73,224.91c30.14,3.05,61.92,1.3,105.87-6.43"/><path class="cls-2" d="M146.58,245.06c1-3.58,4.68-24.35,5.49-27.9,1-4.43,0-11.47.87-14.37.14-.51,1.07-4.92,1.08-5.27,0-3.23-.05-6.35,1.77-9.32,1.25-2,.59-4.64.44-7a2.22,2.22,0,0,1,.22-1.37,34.92,34.92,0,0,0,.33-9.83,55.53,55.53,0,0,1-.86-10.05c-.61-3.14-1.07-5.28-1.07-5.6a7.77,7.77,0,0,0-.52-1.57c-.79-1.83-1.93-3.71-1.74-5.58.61-6.06-.22-12-.53-18s1.19-11.59,2-17.35c.31-2.19,1.08-4.76,3.32-5.72,4.38-1.87,8.5-4.23,12.71-6.43,1.84-1,4.15-1.61,5.32-3.39a31.89,31.89,0,0,1,4.71-5.42c2.47-2.38,3.53-6,6.45-7.92,1.31-.88,3.34-1.07,2.3-3.52,0-.09.35-.44.6-.56,3-1.47,4.63-4.65,7.59-6.15a.84.84,0,0,0,.4-1.28c-1.28-.13-2,1.34-3.51,1.18,1.19-1.73,3.22-2.59,4-4.72-1.44-.15-1.8,1.46-3,1.32a6.52,6.52,0,0,1,1.72-2.09c.29-.3.73-.64.27-1.09-.31-.3-.68-.08-1,.14l-3.11,2.34a7.36,7.36,0,0,1,1.26-1.88c.3-.42,1.26-.73.71-1.35s-1.16.07-1.63.48a27.19,27.19,0,0,0-2,1.85c-1.13,1.2-2.2,2.44-3.38,3.78a2.25,2.25,0,0,1,.39-2.33c.28-.43.65-1,.13-1.37s-.72.23-1.06.46c-1.77,1.24-2.11,3.06-2,5.06,0,.88.43,2.15-.21,2.55-2.16,1.33-2.51,4-4.29,5.6-3,2.79-6.44,5.09-9.64,7.64a22.36,22.36,0,0,1-13.36,4.73c-3.36.14-6.68.89-10,1.25-1.06.11-2.65.46-3-.83a6,6,0,0,1-.19-4.12,20.52,20.52,0,0,0,1.38-7c.22-3.23-1.73-7.22-4.08-8.76-1.48-1-2.92-.64-4.2-.8-3.93,0-5.82,2-6.95,5.67-.45,1.49-.25,3.26-.86,4.5-1.09,2.22-.3,3.9.71,5.55a6.78,6.78,0,0,1,.92,3.72,18.06,18.06,0,0,0-1.8-1.18c-.68-.33-1.45-.26-1.37.7.18,2.21.25,3.93-2.78,2.53-.84-.38-1.66.93-2.78.9-3.93-.1-7.86.38-11.81-.08s-7.9-1.35-11.27-3.89c-1.21-.91-2.66-2.16-4-2.11-3.64.12-5.63-2.55-8.13-4.34a6.32,6.32,0,0,1-2.64-4.19c-.36-2.79-2.15-4.4-4-6.08-.35-.32-.73-.93-1.25-.46s-.19,1.08.11,1.61,1.23,1,1.29,1.89c-.83.17-1.17-.42-1.47-.84a22.14,22.14,0,0,0-3.93-4.1c-.32-.27-.76-.59-1.14-.17s0,.79.32,1.12l2.63,3.31c-2.27-.5-3.44-2.86-5.92-3,.25,1.7,2.06,2,2.55,3.49-1.23.15-1.91-1.41-3.12-.71,0,1.12,1.4,1.29,1.46,2.34.12,2,1.48,2.85,2.87,3.86,3.09,2.25,7.08,2.9,9.63,6.15A16.19,16.19,0,0,0,86.6,91.5c3.18,2.94,7.64,8.27,12.34,10.07,5.28,2,10.34,4.77,15.88,6.08a5.75,5.75,0,0,1,4,3.09,26.29,26.29,0,0,1,3.2,10.52c.26,6,.74,12,.72,18,0,2-.87,4.08-.47,5.92.76,3.58-.2,7.05,0,10.56,0,.28-.27.52-.34.81s-.09,1.17-.19,1.89a1.87,1.87,0,0,0,0,.58,3.47,3.47,0,0,1-.08,1.87,25.48,25.48,0,0,0-.59,13.19,26.33,26.33,0,0,1,.78,6.83,6,6,0,0,0,.27,2,11.93,11.93,0,0,1,.36,1.86c.41,2.77.39,5.68,2.15,8.07a1.47,1.47,0,0,1,.25.48c.21,1-.65,2.49.85,2.9a12.22,12.22,0,0,0,3.39-.07c-.28,1.52.27,4.12.29,5.66,0,.09.11,2.46.13,2.64.56,6.78,3.94,31.42,6.47,37.65.48,1.19-1.08,2.25-.93,3Zm-3.82-17.86c-.32,1.82-.57,6.06-1.44,8.2-1-1.61-1-5.47-.92-6.81.48-6.75,1.55-22.63-.32-29.29-.46-1.64,0-3.22.23-4.81.07-.56,0-1.39.68-1.47s1.22.67,1.57,1.31a2.11,2.11,0,0,1-.08,1.72c-.67,2-.08,4,0,6.1C142.6,210.58,143.84,221,142.76,227.2Z"/><path class="cls-3" d="M144.69,48.53c-6.33-4.29-7.4-6.86-11.72-10.54-5.4-4.58-8.17-3.64-11.32-.86-5.18,4.66-35.94,31.55-34.59,32.16,11.23-7.93,24-19.66,33.53-27.42,1.84-1.51,3.88-4,6.17-2.74,1.75.9,2.53,2.74.86,5-1.56,2,1.06,4.78,2,7.27,1.1,3-5.27,8.58-14.42,14.1,4.53-.61,9.76-3.48,16.17-7.52,2.21-1.39,3.35-.49,3.6,1.55.32,2.41,1.47,1.68,4-.08,5.51-4,11.35-11.24,12.7-9.77,6.54,5.07-1.43,4.09,4.74,7.77,6.37,3.8,3.51,5-.7,9.36,4.05-1,5.07-2.13,7.52-3.76a4.38,4.38,0,0,1,4.61-.21c2.9,1.51,9.77,5.44,11.07,5.31-8.21-7.15-16.66-14.71-23.81-21.41-4-3.51-5.1-1.06-10.37,1.8Z"/><path class="cls-2" d="M136.06,248.49A112.79,112.79,0,1,1,248.85,135.7,112.91,112.91,0,0,1,136.06,248.49Zm0-220.62A107.84,107.84,0,1,0,243.9,135.7,107.95,107.95,0,0,0,136.06,27.87Z"/><rect class="cls-4" x="5.59" y="119.22" width="260.95" height="52.82"/><path class="cls-5" d="M56.86,128v36.58h-7V136.78l-6.13,27.83H35l-6.12-27.83v27.83h-7V128h7c3.38.24,5.48,2,6.3,5.43l4.2,21.7,4.2-21.53c.93-3.5,3-5.36,6.3-5.6Z"/><path class="cls-5" d="M83.29,143.26v21.35H78.92l-2.63-6.12v-2.63c0-1.63-1.11-2.45-3.33-2.45H68.41v5.08h7.88l-2.45,6.12H67.19q-5.77,0-5.78-5.25v-6.3q-.18-5.77,6-5.78h8.93v-3.67H61.59v-6.3H77.17Q83.11,137.47,83.29,143.26Z"/><path class="cls-5" d="M100.27,137.31v6.3h-2.8a2.55,2.55,0,0,0-2.63,2.62v18.38h-7V144q0-6.66,7.18-6.65Z"/><path class="cls-5" d="M111,128v19.25l7-10h8.4l-9.28,13.12,10,14.18h-8.4L111,153.76v6.13q-.36,4.2-4,4.72h-3V128Z"/><path class="cls-5" d="M130.9,128h5.25l-.87,11.55H130Z"/><path class="cls-5" d="M161.36,137.31v6.3H147.18v4.2h8.23c3.85.12,5.83,2,6,5.6v6c0,3.5-2,5.25-6,5.25H140.18v-6.3h14.18v-1.4q-.36-2.62-4-2.8H145.6q-5.25-.17-5.42-4.73v-7c0-3.38,1.86-5.07,5.6-5.07Z"/><path class="cls-5" d="M199.87,158.31v6.3H185q-7.71,0-7.7-7.52V128h7v27.83a2.16,2.16,0,0,0,2.45,2.45Z"/><path class="cls-5" d="M224.9,143.26v21.35h-4.38l-2.62-6.12v-2.63c0-1.63-1.11-2.45-3.33-2.45H210v5.08h7.88l-2.45,6.12h-6.66q-5.78,0-5.77-5.25v-6.3q-.18-5.77,5.95-5.78h8.93v-3.67H203.19v-6.3h15.58Q224.73,137.47,224.9,143.26Z"/><path class="cls-5" d="M251.5,143.78V158q-.17,6.3-6.47,6.65h-9.11q-6.3,0-6.47-6.47V128h7v9.28h8.23Q251.33,137.47,251.5,143.78Zm-7,14.53V147.46q-.52-3.33-4.37-3.85h-3.68v14.7Z"/></g></svg>